<?xml version="1.0" encoding="UTF-8"?>
<svg xmlns="http://www.w3.org/2000/svg" width="126" height="126" viewBox="0 0 126 126" fill="none">
  <g id="99.9% Reliability Icon" clip-path="url(#clip0_811_39868)">
    <path id="Vector" d="M62.9999 4.39967C95.0747 4.39967 121.144 30.4691 121.144 62.5439C121.144 94.6187 95.0747 120.688 62.9999 120.688C30.9252 120.688 4.85572 94.6187 4.85572 62.5439C4.85572 30.4691 30.9252 4.39967 62.9999 4.39967ZM62.9999 0.0605469C28.4953 0.0605469 0.516602 28.0392 0.516602 62.5439C0.516602 97.0486 28.4953 125.027 62.9999 125.027C97.5046 125.027 125.483 97.0486 125.483 62.5439C125.483 28.0392 97.5046 0.0605469 62.9999 0.0605469Z" fill="white"></path>
    <g id="Group">
      <path id="Vector_2" d="M23.7079 70.5878C25.0617 69.1646 26.2072 67.7761 27.0403 66.457C26.3113 66.8735 25.4782 67.0818 24.6798 67.0818C20.8961 67.0818 17.5984 64.6866 17.5984 60.0003C17.5984 54.5504 21.6598 52.2941 25.8601 52.2941C30.0603 52.2941 34.1565 54.6545 34.1565 60.1392C34.1565 63.7493 32.4555 66.457 27.9776 71.4556C27.318 72.2193 26.6238 72.5317 25.6865 72.5317H24.4021C22.8748 72.5317 22.6318 71.6986 23.7079 70.5531V70.5878ZM29.8868 59.9656C29.8868 57.4663 28.3247 56.0084 25.8601 56.0084C23.3955 56.0084 21.8681 57.4663 21.8681 59.9656C21.8681 62.465 23.4649 63.8535 25.8601 63.8535C28.2553 63.8535 29.8521 62.3955 29.8521 59.9656H29.8868Z" fill="#F66608"></path>
      <path id="Vector_3" d="M42.7486 70.5878C44.1024 69.1646 45.248 67.7761 46.0811 66.457C45.3521 66.8735 44.519 67.0818 43.7206 67.0818C39.9369 67.0818 36.6392 64.6866 36.6392 60.0003C36.6392 54.5504 40.7006 52.2941 44.9008 52.2941C49.1011 52.2941 53.1972 54.6545 53.1972 60.1392C53.1972 63.7493 51.4963 66.457 47.0183 71.4556C46.3588 72.2193 45.6645 72.5317 44.7273 72.5317H43.4429C41.9155 72.5317 41.6725 71.6986 42.7486 70.5531V70.5878ZM48.9275 59.9656C48.9275 57.4663 47.3655 56.0084 44.9008 56.0084C42.4362 56.0084 40.9089 57.4663 40.9089 59.9656C40.9089 62.465 42.5057 63.8535 44.9008 63.8535C47.296 63.8535 48.8928 62.3955 48.8928 59.9656H48.9275Z" fill="#F66608"></path>
      <path id="Vector_4" d="M53.6084 70.6321C53.6084 69.2843 54.6106 68.524 55.9929 68.524C57.2716 68.524 58.3775 69.2498 58.3775 70.6321C58.3775 72.0145 57.2716 72.7402 55.9929 72.7402C54.6106 72.7402 53.6084 72.0145 53.6084 70.6321Z" fill="#F66608"></path>
      <path id="Vector_5" d="M66.796 70.5878C68.1498 69.1646 69.2953 67.7761 70.1284 66.457C69.3995 66.8735 68.5664 67.0818 67.768 67.0818C63.9843 67.0818 60.6865 64.6866 60.6865 60.0003C60.6865 54.5504 64.7479 52.2941 68.9482 52.2941C73.1485 52.2941 77.2446 54.6545 77.2446 60.1392C77.2446 63.7493 75.5437 66.457 71.0657 71.4556C70.4062 72.2193 69.7119 72.5317 68.7746 72.5317H67.4903C65.9629 72.5317 65.7199 71.6986 66.796 70.5531V70.5878ZM72.9749 59.9656C72.9749 57.4663 71.4128 56.0084 68.9482 56.0084C66.4836 56.0084 64.9562 57.4663 64.9562 59.9656C64.9562 62.465 66.553 63.8535 68.9482 63.8535C71.3434 63.8535 72.9402 62.3955 72.9402 59.9656H72.9749Z" fill="#F66608"></path>
      <path id="Vector_6" d="M79.637 58.006C79.637 54.1182 82.5182 52.4172 85.7465 52.4172C88.9748 52.4172 91.7865 54.1182 91.7865 58.006C91.7865 61.8939 88.9401 63.5948 85.7118 63.5948C82.4835 63.5948 79.6023 61.9633 79.6023 58.006H79.637ZM88.4541 58.006C88.4541 56.3398 87.378 55.3331 85.7465 55.3331C84.115 55.3331 82.9695 56.3051 82.9695 58.006C82.9695 59.707 84.0108 60.6789 85.7465 60.6789C87.4821 60.6789 88.4541 59.7417 88.4541 58.006ZM87.8987 70.3638L97.0629 53.8752C97.653 52.7991 98.2779 52.5908 99.2845 52.5908C100.361 52.5908 101.09 53.0074 100.083 54.8124L90.9881 71.2664C90.398 72.3772 89.7732 72.5508 88.4194 72.5508C87.4474 72.5508 86.892 72.2036 87.8987 70.3638ZM96.1257 67.2397C96.1257 63.3518 99.0068 61.6509 102.27 61.6509C105.533 61.6509 108.31 63.3518 108.31 67.2397C108.31 71.1275 105.463 72.8285 102.235 72.8285C99.0068 72.8285 96.1257 71.197 96.1257 67.2397ZM104.943 67.2397C104.943 65.5735 103.867 64.5668 102.235 64.5668C100.604 64.5668 99.4581 65.5387 99.4581 67.2397C99.4581 68.9406 100.499 69.9126 102.235 69.9126C103.971 69.9126 104.943 68.9753 104.943 67.2397Z" fill="#F66608"></path>
    </g>
  </g>
  <defs>
    <clipPath id="clip0_811_39868">
      <rect width="124.967" height="124.967" fill="white" transform="translate(0.516602 0.0605469)"></rect>
    </clipPath>
  </defs>
</svg>
