<?xml version="1.0" encoding="UTF-8"?>
<svg xmlns="http://www.w3.org/2000/svg" width="126" height="126" viewBox="0 0 126 126" fill="none">
  <g id="svgexport-20" clip-path="url(#clip0_811_39810)">
    <path id="Vector" d="M62.9997 4.39967C95.0745 4.39967 121.144 30.4691 121.144 62.5439C121.144 94.6187 95.0745 120.688 62.9997 120.688C30.9249 120.688 4.85548 94.6187 4.85548 62.5439C4.85548 30.4691 30.9249 4.39967 62.9997 4.39967ZM62.9997 0.0605469C28.495 0.0605469 0.516357 28.0392 0.516357 62.5439C0.516357 97.0486 28.495 125.027 62.9997 125.027C97.5044 125.027 125.483 97.0486 125.483 62.5439C125.483 28.0392 97.5044 0.0605469 62.9997 0.0605469Z" fill="white"></path>
    <g id="Group">
      <path id="Vector_2" d="M63.0099 83.4941C60.7535 83.4941 59.0526 81.9667 57.5946 80.6476C56.8309 79.9533 55.9631 79.1897 55.4077 79.0161C54.7829 78.8425 53.6026 79.1202 52.5612 79.3285C50.652 79.7451 48.4651 80.1963 46.5906 79.0855C44.6467 77.9747 43.9871 75.8572 43.3623 73.9827C43.0499 72.976 42.6681 71.8652 42.2515 71.414C41.8349 70.9627 40.6894 70.6156 39.6827 70.3031C37.8082 69.713 35.6907 69.0188 34.5799 67.0748C33.4691 65.1656 33.9204 63.0134 34.3369 61.1042C34.5452 60.0628 34.8229 58.8826 34.6494 58.2577C34.5105 57.7023 33.7121 56.8345 33.0178 56.0708C31.6988 54.6129 30.1714 52.9119 30.1714 50.6556C30.1714 48.3993 31.6988 46.6983 33.0178 45.2404C33.7121 44.4767 34.4758 43.6089 34.6494 43.0535C34.8229 42.4286 34.5799 41.2484 34.3369 40.207C33.9204 38.2978 33.4691 36.1456 34.5799 34.2364C35.6907 32.2924 37.8082 31.6329 39.6827 31.0081C40.6894 30.6956 41.8002 30.3138 42.2515 29.8973C42.7028 29.4807 43.0499 28.3352 43.3623 27.3285C43.9524 25.454 44.6467 23.3365 46.5906 22.2257C48.4998 21.1496 50.652 21.6009 52.5612 21.9827C53.6026 22.191 54.7829 22.434 55.4077 22.2951C55.9631 22.1563 56.8309 21.3579 57.5946 20.6636C59.0526 19.3445 60.7535 17.8171 63.0099 17.8171C65.2662 17.8171 66.9671 19.3445 68.4251 20.6636C69.1888 21.3579 70.0566 22.1215 70.612 22.2951C71.2368 22.4687 72.4171 22.2257 73.4585 21.9827C75.3677 21.5661 77.5199 21.1149 79.4291 22.2257C81.373 23.3365 82.0326 25.454 82.6574 27.3285C82.9698 28.3352 83.3517 29.446 83.7682 29.8973C84.2195 30.3485 85.3303 30.6956 86.337 31.0081C88.2115 31.5982 90.329 32.2924 91.4398 34.2364C92.5506 36.1456 92.0993 38.2978 91.6828 40.207C91.4745 41.2484 91.1968 42.4286 91.3703 43.0535C91.5092 43.6089 92.3076 44.4767 93.0019 45.2404C94.3209 46.6983 95.8483 48.3993 95.8483 50.6556C95.8483 52.9119 94.3209 54.6129 93.0019 56.0708C92.3076 56.8345 91.5439 57.7023 91.3703 58.2577C91.1968 58.8826 91.4398 60.0628 91.6828 61.1042C92.0993 63.0134 92.5506 65.1656 91.4398 67.0748C90.329 69.0188 88.2115 69.6783 86.337 70.3031C85.3303 70.6156 84.2195 70.9974 83.7682 71.414C83.3169 71.8305 82.9698 72.976 82.6574 73.9827C82.0673 75.8572 81.373 77.9747 79.4291 79.0855C77.5199 80.1963 75.3677 79.7451 73.4585 79.3285C72.4171 79.1202 71.2368 78.8425 70.612 79.0161C70.0566 79.1549 69.1888 79.9533 68.4251 80.6476C66.9324 81.9667 65.2662 83.4941 63.0099 83.4941ZM54.887 74.6423C55.4424 74.6423 55.9631 74.7117 56.5185 74.8505C58.0806 75.2671 59.2956 76.3779 60.5105 77.454C61.3783 78.2177 62.4197 79.1897 63.0099 79.1897C63.6 79.1897 64.6761 78.2177 65.5092 77.454C66.6894 76.3779 67.9044 75.2671 69.4665 74.8505C71.098 74.3993 72.7989 74.7811 74.3263 75.0935C75.3677 75.3018 76.7562 75.6142 77.2422 75.3365C77.7281 75.0588 78.1794 73.6703 78.4918 72.6289C78.9778 71.171 79.4985 69.5047 80.6788 68.3245C81.859 67.1443 83.5252 66.6236 84.9832 66.1376C85.9898 65.8252 87.3784 65.3739 87.6908 64.8879C87.9685 64.4367 87.6908 63.0134 87.4478 61.972C87.1354 60.4447 86.7535 58.7437 87.2048 57.1122C87.6213 55.5501 88.7322 54.3352 89.8083 53.1202C90.5719 52.2524 91.5439 51.211 91.5439 50.6209C91.5439 50.0308 90.5719 48.9547 89.8083 48.1216C88.7322 46.9413 87.6213 45.7264 87.2048 44.1296C86.7882 42.4981 87.1354 40.7971 87.4478 39.2698C87.6561 38.2284 87.9685 36.8051 87.6908 36.3539C87.4131 35.8679 86.0245 35.4166 85.0179 35.1042C83.5599 34.6182 81.8937 34.0975 80.7135 32.9173C79.5332 31.737 79.0125 30.0708 78.5265 28.6129C78.2141 27.6062 77.7629 26.2177 77.2769 25.9053C76.8256 25.6276 75.4024 25.9053 74.361 26.1483C72.8336 26.4607 71.1327 26.8425 69.5012 26.3912C67.9391 25.9747 66.7241 24.8639 65.5092 23.7878C64.6414 23.0241 63.6 22.0521 63.0099 22.0521C62.4197 22.0521 61.3436 23.0241 60.5105 23.7878C59.3303 24.8639 58.1153 25.9747 56.5185 26.3912C54.887 26.8078 53.1861 26.4607 51.6587 26.1483C50.6173 25.94 49.1941 25.6276 48.7428 25.9053C48.2568 26.183 47.8056 27.5715 47.4932 28.6129C47.0072 30.0708 46.4865 31.737 45.3062 32.9173C44.126 34.0975 42.4598 34.6182 41.0018 35.1042C39.9952 35.4166 38.5719 35.8679 38.2942 36.3539C38.0165 36.8051 38.2942 38.2284 38.5372 39.2698C38.8496 40.7971 39.2315 42.4981 38.7802 44.1296C38.3636 45.6917 37.2528 46.9413 36.1767 48.1216C35.413 48.9894 34.4411 50.0308 34.4411 50.6209C34.4411 51.211 35.413 52.2871 36.1767 53.1202C37.2528 54.3005 38.3636 55.5154 38.7802 57.1122C39.1968 58.7437 38.8496 60.4447 38.5372 61.972C38.3289 63.0134 38.0165 64.4367 38.2942 64.8879C38.5719 65.3739 39.9604 65.8252 41.0018 66.1376C42.4598 66.6236 44.126 67.1443 45.3062 68.3245C46.4865 69.5047 47.0072 71.171 47.4932 72.6289C47.8056 73.6356 48.2568 75.0241 48.7428 75.3365C49.1941 75.6142 50.6173 75.3365 51.6587 75.0935C52.6654 74.8853 53.7762 74.6423 54.887 74.6423Z" fill="white"></path>
      <g id="Group_2">
        <path id="Vector_3" d="M51.6904 105.025C50.9961 105.025 50.3365 104.678 49.92 104.122L44.9908 97.2143L36.3472 97.7003C35.5835 97.7697 34.8546 97.3879 34.438 96.7283C34.0215 96.1035 33.952 95.2704 34.2992 94.5761L43.2898 75.727C43.8105 74.6509 45.0949 74.1996 46.171 74.7203C47.2471 75.241 47.6984 76.5254 47.1777 77.6015L39.7491 93.1529L45.928 92.8058C46.657 92.7363 47.3859 93.1182 47.8025 93.7083L51.2391 98.5334L59.2578 80.8645C59.7438 79.7884 61.0281 79.2677 62.139 79.7884C63.2151 80.2744 63.701 81.5588 63.2151 82.6696L53.6343 103.775C53.3219 104.469 52.6276 104.955 51.8639 105.025C51.7945 105.025 51.7251 105.025 51.6556 105.025H51.6904Z" fill="white"></path>
        <path id="Vector_4" d="M73.0396 105.024C73.0396 105.024 72.9008 105.024 72.8313 105.024C72.0677 104.955 71.3734 104.469 71.061 103.775L61.4802 82.6691C60.9942 81.593 61.4802 80.3086 62.5563 79.7879C63.6671 79.3019 64.9515 79.7879 65.4375 80.864L73.4562 98.5329L76.8928 93.7078C77.3093 93.1177 78.0383 92.7358 78.7673 92.8053L84.9462 93.1524L77.5176 77.601C76.9969 76.5249 77.4482 75.2405 78.5243 74.7198C79.6004 74.1991 80.9195 74.6504 81.4054 75.7265L90.3961 94.5756C90.7432 95.2699 90.6738 96.0683 90.2572 96.7278C89.8407 97.3527 89.1117 97.7692 88.348 97.6998L79.7045 97.2138L74.7753 104.122C74.3587 104.712 73.6992 105.024 73.0049 105.024H73.0396Z" fill="white"></path>
      </g>
    </g>
    <path id="Vector_5" d="M60.2544 64.3764C59.6643 64.3764 59.0742 64.1334 58.6576 63.6821L47.8272 51.8797C47.0288 51.0119 47.0635 49.6234 47.966 48.825C48.8338 48.0266 50.2224 48.0613 51.0208 48.9638L60.1156 58.8917L74.7644 40.2509C75.4934 39.3136 76.8819 39.1401 77.8192 39.869C78.7564 40.598 78.93 41.9865 78.201 42.9238L61.9553 63.578C61.5735 64.064 60.9834 64.3764 60.3238 64.4111H60.2544V64.3764Z" fill="#F66608"></path>
  </g>
  <defs>
    <clipPath id="clip0_811_39810">
      <rect width="124.967" height="124.967" fill="white" transform="translate(0.516357 0.0605469)"></rect>
    </clipPath>
  </defs>
</svg>
