<?xml version="1.0" encoding="UTF-8"?>
<svg xmlns="http://www.w3.org/2000/svg" width="127" height="127" viewBox="0 0 127 127" fill="none">
  <g id="svgexport-23" clip-path="url(#clip0_811_39965)">
    <path id="Vector" d="M63.5 4.43164C96.0967 4.43164 122.59 30.7166 122.59 63.0566C122.59 95.3966 96.0967 121.682 63.5 121.682C30.9033 121.682 4.40972 95.3966 4.40972 63.0566C4.40972 30.7166 30.9033 4.43164 63.5 4.43164ZM63.5 0.0566406C28.4339 0.0566406 0 28.2666 0 63.0566C0 97.8466 28.4339 126.057 63.5 126.057C98.5661 126.057 127 97.8466 127 63.0566C127 28.2666 98.5661 0.0566406 63.5 0.0566406Z" fill="white"></path>
    <path id="Vector_2" d="M71.3175 31.8301C70.612 31.8301 69.9417 31.5151 69.5184 30.9201C67.5428 28.1551 64.5089 26.5451 61.1928 26.5451C57.8767 26.5451 54.8428 28.1201 52.8673 30.9201C52.1617 31.9001 50.7859 32.1451 49.7981 31.4451C48.8103 30.7451 48.5634 29.3801 49.2689 28.4001C52.0912 24.4451 56.4303 22.2051 61.1928 22.2051C65.9553 22.2051 70.2945 24.4801 73.1167 28.4001C73.8223 29.3801 73.5753 30.7451 72.5875 31.4451C72.1995 31.7251 71.7409 31.8651 71.3175 31.8651V31.8301Z" fill="#F66608"></path>
    <path id="Vector_3" d="M75.638 26.7838C74.9324 26.7838 74.2269 26.4338 73.8035 25.8388C70.9813 21.7088 66.2894 19.2588 61.2446 19.2588C56.1999 19.2588 51.6491 21.6738 48.6505 25.8738C47.9449 26.8538 46.5691 27.0988 45.5813 26.3988C44.5935 25.6988 44.3466 24.3338 45.0521 23.3538C48.8269 18.0688 54.8594 14.8838 61.2446 14.8838C67.6299 14.8838 73.8388 18.0688 77.4724 23.3888C78.1427 24.4038 77.8957 25.7338 76.8727 26.4338C76.4846 26.6788 76.0613 26.8188 75.638 26.8188V26.7838Z" fill="#F66608"></path>
    <path id="Vector_4" d="M71.1569 45.7751C73.6969 45.7751 75.743 47.8401 75.743 50.3251V100.095C75.743 102.615 73.6617 104.645 71.1569 104.645H60.9617C58.4217 104.645 56.3755 102.58 56.3755 100.095V50.3251C56.3755 47.8051 58.4569 45.7751 60.9617 45.7751H71.1569ZM71.1569 41.4001H60.9617C55.9875 41.4001 51.9658 45.3901 51.9658 50.3251V100.095C51.9658 105.03 55.9875 109.02 60.9617 109.02H71.1569C76.1311 109.02 80.1528 105.03 80.1528 100.095V50.3251C80.1528 45.3901 76.1311 41.4001 71.1569 41.4001Z" fill="white"></path>
    <path id="Vector_5" d="M61.4707 45.0021C60.236 45.0021 59.2834 44.0221 59.2834 42.8321V34.9571C59.2834 33.7321 60.2712 32.7871 61.4707 32.7871C62.6701 32.7871 63.6579 33.7671 63.6579 34.9571V42.8321C63.6579 44.0571 62.6701 45.0021 61.4707 45.0021Z" fill="white"></path>
    <g id="Group">
      <path id="Vector_6" d="M66.0174 68.2979C68.0242 68.2979 69.651 66.6839 69.651 64.6929C69.651 62.7019 68.0242 61.0879 66.0174 61.0879C64.0106 61.0879 62.3838 62.7019 62.3838 64.6929C62.3838 66.6839 64.0106 68.2979 66.0174 68.2979Z" fill="white"></path>
      <path id="Vector_7" d="M66.0172 79.3106C68.0239 79.3106 69.6508 77.6966 69.6508 75.7056C69.6508 73.7146 68.0239 72.1006 66.0172 72.1006C64.0104 72.1006 62.3835 73.7146 62.3835 75.7056C62.3835 77.6966 64.0104 79.3106 66.0172 79.3106Z" fill="white"></path>
      <path id="Vector_8" d="M66.0172 90.2618C68.0239 90.2618 69.6508 88.6477 69.6508 86.6568C69.6508 84.6658 68.0239 83.0518 66.0172 83.0518C64.0104 83.0518 62.3835 84.6658 62.3835 86.6568C62.3835 88.6477 64.0104 90.2618 66.0172 90.2618Z" fill="white"></path>
    </g>
  </g>
  <defs>
    <clipPath id="clip0_811_39965">
      <rect width="127" height="126" fill="white" transform="translate(0 0.0566406)"></rect>
    </clipPath>
  </defs>
</svg>
