<?xml version="1.0" encoding="UTF-8"?>
<svg xmlns="http://www.w3.org/2000/svg" width="124" height="125" viewBox="0 0 124 125" fill="none">
  <g id="Circle_Search Plans 1" clip-path="url(#clip0_820_5482)">
    <path id="Vector" d="M62 4.36611C93.8267 4.36611 119.694 30.2339 119.694 62.0605C119.694 93.8872 93.8267 119.755 62 119.755C30.1733 119.755 4.30556 93.8872 4.30556 62.0605C4.30556 30.2339 30.1733 4.36611 62 4.36611ZM62 0.0605469C27.7623 0.0605469 0 27.8228 0 62.0605C0 96.2983 27.7623 124.061 62 124.061C96.2377 124.061 124 96.2983 124 62.0605C124 27.8228 96.2377 0.0605469 62 0.0605469Z" fill="white"></path>
    <path id="Vector_2" d="M57.3846 32.1628C71.2312 32.1628 82.5291 43.4261 82.5291 57.3072C82.5291 71.1884 71.2658 82.4517 57.3846 82.4517C43.5035 82.4517 32.2402 71.1884 32.2402 57.3072C32.2402 43.4261 43.5035 32.1628 57.3846 32.1628ZM57.3846 27.8572C41.1268 27.8572 27.9346 41.0494 27.9346 57.3072C27.9346 73.5651 41.1268 86.7572 57.3846 86.7572C73.6424 86.7572 86.8346 73.5651 86.8346 57.3072C86.8346 41.0494 73.6424 27.8572 57.3846 27.8572Z" fill="white"></path>
    <path id="Vector_3" d="M96.0315 98.4339C95.4803 98.4339 94.9293 98.2272 94.5159 97.8139L76.7082 80.1095C75.8815 79.2828 75.847 77.905 76.7082 77.0783C77.5349 76.2172 78.9126 76.2172 79.7393 77.0783L97.547 94.7828C98.3737 95.6095 98.4082 96.9872 97.547 97.8139C97.1337 98.2272 96.5826 98.4339 96.0315 98.4339Z" fill="white"></path>
    <path id="Vector_4" d="M58.6988 73.3109V69.4123C63.4357 68.9932 67.1667 66.436 67.1667 61.5733C67.1667 55.9559 62.7232 54.321 58.6988 53.1054V45.8532C60.3337 46.2305 61.6332 47.1107 62.807 48.3683L66.9571 45.5597C65.0287 43.0446 62.3878 41.5353 58.6988 41.2001V38.8105H55.9321V41.1581C50.9435 41.5772 47.7576 44.4698 47.7576 48.9133C47.7576 54.5726 52.0335 56.459 55.9321 57.7585V64.7592C53.7103 64.4238 52.0335 63.292 50.7759 61.4056L46.5 64.0045C48.3445 67.2743 51.6143 69.0769 55.9321 69.4123V73.3109H58.6988ZM58.6988 58.6387C60.5852 59.3095 61.9686 60.148 61.9686 61.741C61.9686 63.292 60.9625 64.4657 58.6988 64.7592V58.6387ZM55.9321 52.1411C54.0457 51.3028 52.9557 50.3805 52.9557 48.7875C52.9557 47.3623 53.8361 46.1047 55.9321 45.7693V52.1411Z" fill="#F66608"></path>
  </g>
  <defs>
    <clipPath id="clip0_820_5482">
      <rect width="124" height="124" fill="white" transform="translate(0 0.0605469)"></rect>
    </clipPath>
  </defs>
</svg>
