<?xml version="1.0" encoding="UTF-8"?>
<svg xmlns="http://www.w3.org/2000/svg" width="127" height="128" viewBox="0 0 127 128" fill="none">
  <g id="svgexport-21" clip-path="url(#clip0_811_39818)">
    <path id="Vector" d="M63.5 4.46636C30.9033 4.46636 4.40973 30.96 4.40973 63.5566C4.40973 96.1533 30.9033 122.647 63.5 122.647C96.0967 122.647 122.59 96.1533 122.59 63.5566C122.59 30.96 96.0967 4.46636 63.5 4.46636ZM63.5 0.0566406C98.5661 0.0566406 127 28.4905 127 63.5566C127 98.6227 98.5661 127.057 63.5 127.057C28.4339 127.057 0 98.6227 0 63.5566C0 28.4905 28.4339 0.0566406 63.5 0.0566406Z" fill="white"></path>
    <g id="Group">
      <path id="Vector_2" d="M54.5472 98.2976C55.7819 98.2976 56.7344 97.3098 56.7344 96.1103C56.7344 94.9109 55.7466 93.9231 54.5472 93.9231C42.6586 93.9231 42.341 87.6437 42.341 87.3615V49.7553C42.341 38.0784 51.8308 28.5887 63.5077 28.5887C75.1847 28.5887 84.6744 38.0784 84.6744 49.7553V76.1431C84.6744 77.3426 85.6622 78.3303 86.8616 78.3303C88.0611 78.3303 89.0488 77.3426 89.0488 76.1431V49.7553C89.0488 35.6442 77.5835 24.179 63.4724 24.179C49.3613 24.179 37.896 35.6442 37.896 49.7553V87.3262C37.896 87.6789 37.9666 90.9245 40.8947 93.8878C43.7874 96.8159 48.4088 98.2976 54.5472 98.2976Z" fill="white"></path>
      <path id="Vector_3" d="M87.3207 78.8587H90.4604C94.0588 78.8587 96.9868 75.9306 96.9868 72.3323V56.3162C96.9868 52.7178 94.0588 49.7898 90.4604 49.7898H87.3207C86.086 49.7898 85.1335 50.7776 85.1335 51.977C85.1335 53.1765 86.1213 54.1642 87.3207 54.1642H90.4604C91.6246 54.1642 92.5771 55.1167 92.5771 56.2809V72.297C92.5771 73.4612 91.6246 74.4137 90.4604 74.4137H87.3207C86.086 74.4137 85.1335 75.4015 85.1335 76.6009C85.1335 77.8003 86.1213 78.7881 87.3207 78.7881V78.8587Z" fill="white"></path>
      <path id="Vector_4" d="M36.593 78.8506H39.7327C40.9674 78.8506 41.9199 77.8628 41.9199 76.6634C41.9199 75.464 40.9321 74.4762 39.7327 74.4762H36.593C35.4288 74.4762 34.4763 73.5237 34.4763 72.3595V56.3434C34.4763 55.1792 35.4288 54.2267 36.593 54.2267H39.7327C40.9674 54.2267 41.9199 53.239 41.9199 52.0395C41.9199 50.8401 40.9321 49.8523 39.7327 49.8523H36.593C32.9946 49.8523 30.0666 52.7804 30.0666 56.3787V72.3948C30.0666 75.9931 32.9946 78.9212 36.593 78.9212V78.8506Z" fill="white"></path>
    </g>
    <path id="Vector_5" d="M61.735 105.472C66.9561 105.472 71.1895 101.239 71.1895 96.0174C71.1895 90.7963 66.9561 86.563 61.735 86.563C56.5139 86.563 52.2806 90.7963 52.2806 96.0174C52.2806 101.239 56.5139 105.472 61.735 105.472ZM61.735 91.008C64.522 91.008 66.7797 93.2658 66.7797 96.0527C66.7797 98.8397 64.522 101.097 61.735 101.097C58.9481 101.097 56.6903 98.8397 56.6903 96.0527C56.6903 93.2658 58.9481 91.008 61.735 91.008Z" fill="#F66608"></path>
  </g>
  <defs>
    <clipPath id="clip0_811_39818">
      <rect width="127" height="127" fill="white" transform="matrix(-1 0 0 1 127 0.0566406)"></rect>
    </clipPath>
  </defs>
</svg>
